<svg width="23" height="19" viewBox="0 0 23 19" fill="none" xmlns="http://www.w3.org/2000/svg">
<path d="M14.5 6.1847e-06C15.2023 -7.73774e-05 15.8922 0.184738 16.5004 0.53587C17.1086 0.887002 17.6137 1.39207 17.9647 2.0003C18.3158 2.60853 18.5006 3.29847 18.5005 4.00075C18.5003 4.70304 18.3153 5.39291 17.964 6.00101L22.5 6.00001V8.00001H20.5V18C20.5 18.2652 20.3946 18.5196 20.2071 18.7071C20.0196 18.8946 19.7652 19 19.5 19H3.5C3.23478 19 2.98043 18.8946 2.79289 18.7071C2.60536 18.5196 2.5 18.2652 2.5 18V8.00001H0.5V6.00001L5.036 6.00101C4.53986 5.14189 4.38069 4.12906 4.58938 3.15918C4.79808 2.1893 5.35975 1.33157 6.16533 0.752558C6.97092 0.173543 7.96293 -0.0854441 8.94875 0.0258849C9.93456 0.137214 10.8438 0.610914 11.5 1.35501C11.8746 0.928388 12.3361 0.58678 12.8535 0.353084C13.3709 0.119389 13.9323 -0.000994248 14.5 6.1847e-06ZM12.5 8.00001H10.5V18H12.5V8.00001ZM8.5 2.00001C7.98102 1.99768 7.48145 2.19719 7.10685 2.55639C6.73224 2.91558 6.51193 3.40632 6.49246 3.92495C6.47299 4.44357 6.65588 4.94945 7.00249 5.33572C7.34911 5.722 7.8323 5.9584 8.35 5.99501L8.5 6.00001H10.5V4.00001C10.5 3.52207 10.3289 3.05992 10.0176 2.69726C9.7063 2.33461 9.27542 2.09541 8.803 2.02301L8.649 2.00501L8.5 2.00001ZM14.5 2.00001C13.9954 1.99985 13.5094 2.19041 13.1395 2.5335C12.7695 2.87659 12.5428 3.34685 12.505 3.85001L12.5 4.00001V6.00001H14.5C15.0046 6.00017 15.4906 5.8096 15.8605 5.46651C16.2305 5.12342 16.4572 4.65316 16.495 4.15001L16.5 4.00001C16.5 3.46957 16.2893 2.96087 15.9142 2.58579C15.5391 2.21072 15.0304 2.00001 14.5 2.00001Z" fill="white"/>
</svg>
