<svg width="24" height="24" viewBox="0 0 24 24" fill="none" xmlns="http://www.w3.org/2000/svg">
<path fill-rule="evenodd" clip-rule="evenodd" d="M4.79429 7.05581C4.79429 5.80681 5.80729 4.79381 7.05529 4.79381H8.08429C8.68029 4.79381 9.25329 4.55781 9.67729 4.13681L10.3963 3.41681C11.2773 2.53181 12.7093 2.52781 13.5943 3.40881L13.6033 3.41681L14.3233 4.13681C14.7463 4.55781 15.3193 4.79381 15.9163 4.79381H16.9443C18.1933 4.79381 19.2063 5.80681 19.2063 7.05581V8.08281C19.2063 8.68081 19.4423 9.25281 19.8633 9.67681L20.5833 10.3968C21.4683 11.2778 21.4733 12.7088 20.5923 13.5948L20.5833 13.6038L19.8633 14.3238C19.4423 14.7458 19.2063 15.3198 19.2063 15.9158V16.9448C19.2063 18.1938 18.1933 19.2058 16.9443 19.2058H15.9163C15.3193 19.2058 14.7463 19.4428 14.3233 19.8638L13.6033 20.5828C12.7233 21.4688 11.2913 21.4728 10.4053 20.5918C10.4023 20.5888 10.3993 20.5858 10.3963 20.5828L9.67729 19.8638C9.25329 19.4428 8.68029 19.2058 8.08429 19.2058H7.05529C5.80729 19.2058 4.79429 18.1938 4.79429 16.9448V15.9158C4.79429 15.3198 4.55729 14.7458 4.13629 14.3238L3.41729 13.6038C2.53129 12.7228 2.52729 11.2908 3.40829 10.4058L3.41729 10.3968L4.13629 9.67681C4.55729 9.25281 4.79429 8.68081 4.79429 8.08281V7.05581Z" stroke="#959595" stroke-opacity="0.63" stroke-width="1.5" stroke-linecap="round" stroke-linejoin="round"/>
<path opacity="0.4" d="M9.42999 14.5695L14.57 9.4295" stroke="#959595" stroke-opacity="0.63" stroke-width="1.5" stroke-linecap="round" stroke-linejoin="round"/>
<path opacity="0.4" d="M14.5667 15.3224C14.3667 15.3224 14.1767 15.2424 14.0367 15.1024C13.9667 15.0324 13.9167 14.9424 13.8767 14.8524C13.8367 14.7624 13.8167 14.6734 13.8167 14.5724C13.8167 14.4724 13.8367 14.3724 13.8767 14.2824C13.9167 14.1924 13.9667 14.1124 14.0367 14.0424C14.3167 13.7624 14.8167 13.7624 15.0967 14.0424C15.1667 14.1124 15.2267 14.1924 15.2667 14.2824C15.2967 14.3724 15.3167 14.4724 15.3167 14.5724C15.3167 14.6734 15.2967 14.7624 15.2667 14.8524C15.2267 14.9424 15.1667 15.0324 15.0967 15.1024C14.9567 15.2424 14.7667 15.3224 14.5667 15.3224Z" fill="#959595" fill-opacity="0.63"/>
<path opacity="0.4" d="M9.42657 10.1828C9.32657 10.1828 9.23657 10.1618 9.14657 10.1218C9.05657 10.0818 8.96657 10.0328 8.89657 9.96281C8.82657 9.88281 8.77657 9.80281 8.73657 9.71281C8.69657 9.62181 8.67657 9.53281 8.67657 9.43281C8.67657 9.33181 8.69657 9.23281 8.73657 9.14281C8.77657 9.05281 8.82657 8.96281 8.89657 8.90281C9.18657 8.62181 9.67658 8.62181 9.95658 8.90281C10.0966 9.04181 10.1766 9.23281 10.1766 9.43281C10.1766 9.53281 10.1666 9.62181 10.1266 9.71281C10.0866 9.80281 10.0266 9.88281 9.95658 9.96281C9.88658 10.0328 9.80658 10.0818 9.71658 10.1218C9.62657 10.1618 9.52658 10.1828 9.42657 10.1828Z" fill="#959595" fill-opacity="0.63"/>
</svg>
